<svg width="331" height="168" viewBox="0 0 331 168" fill="none" xmlns="http://www.w3.org/2000/svg">
<g filter="url(#filter0_d)">
<rect x="22" y="18" width="287" height="124" fill="#AFFFD8"/>
<rect x="22" y="18" width="287" height="124" fill="url(#paint0_linear)"/>
<rect x="21" y="17" width="289" height="126" stroke="black" stroke-width="2" stroke-linecap="round" stroke-linejoin="round"/>
</g>
<path d="M76.3359 57V39.9375H82.4648C84.6602 39.9375 86.3281 40.3398 87.4688 41.1445C88.6172 41.9492 89.1914 43.1172 89.1914 44.6484C89.1914 45.5312 88.9883 46.2852 88.582 46.9102C88.1758 47.5352 87.5781 47.9961 86.7891 48.293C87.6797 48.5273 88.3633 48.9648 88.8398 49.6055C89.3164 50.2461 89.5547 51.0273 89.5547 51.9492C89.5547 53.6211 89.0234 54.8789 87.9609 55.7227C86.9062 56.5586 85.3398 56.9844 83.2617 57H76.3359ZM80.4492 49.7461V53.8359H83.1445C83.8867 53.8359 84.457 53.668 84.8555 53.332C85.2539 52.9883 85.4531 52.5078 85.4531 51.8906C85.4531 50.4688 84.7461 49.7539 83.332 49.7461H80.4492ZM80.4492 47.0508H82.5938C83.4922 47.043 84.1328 46.8789 84.5156 46.5586C84.8984 46.2383 85.0898 45.7656 85.0898 45.1406C85.0898 44.4219 84.8828 43.9062 84.4688 43.5938C84.0547 43.2734 83.3867 43.1133 82.4648 43.1133H80.4492V47.0508ZM97.7812 57.2344C95.8359 57.2344 94.2617 56.6562 93.0586 55.5C91.8555 54.3359 91.2539 52.8242 91.2539 50.9648V50.6367C91.2539 49.3398 91.4922 48.1953 91.9688 47.2031C92.4531 46.2109 93.1562 45.4453 94.0781 44.9062C95 44.3594 96.0938 44.0859 97.3594 44.0859C99.1406 44.0859 100.547 44.6406 101.578 45.75C102.609 46.8516 103.125 48.3906 103.125 50.3672V51.9023H95.2734C95.4141 52.6133 95.7227 53.1719 96.1992 53.5781C96.6758 53.9844 97.293 54.1875 98.0508 54.1875C99.3008 54.1875 100.277 53.75 100.98 52.875L102.785 55.0078C102.293 55.6875 101.594 56.2305 100.688 56.6367C99.7891 57.0352 98.8203 57.2344 97.7812 57.2344ZM97.3359 47.1328C96.1797 47.1328 95.4922 47.8984 95.2734 49.4297H99.2578V49.125C99.2734 48.4922 99.1133 48.0039 98.7773 47.6602C98.4414 47.3086 97.9609 47.1328 97.3359 47.1328ZM104.262 50.5664C104.262 49.2852 104.473 48.1523 104.895 47.168C105.316 46.1836 105.922 45.4258 106.711 44.8945C107.5 44.3555 108.418 44.0859 109.465 44.0859C110.785 44.0859 111.816 44.5312 112.559 45.4219L112.699 44.3203H116.285V56.5195C116.285 57.6367 116.023 58.6055 115.5 59.4258C114.984 60.2539 114.234 60.8867 113.25 61.3242C112.266 61.7695 111.125 61.9922 109.828 61.9922C108.898 61.9922 107.996 61.8164 107.121 61.4648C106.254 61.1133 105.59 60.6562 105.129 60.0938L106.781 57.7734C107.516 58.6406 108.484 59.0742 109.688 59.0742C111.438 59.0742 112.312 58.1758 112.312 56.3789V55.9805C111.555 56.8164 110.598 57.2344 109.441 57.2344C107.895 57.2344 106.645 56.6445 105.691 55.4648C104.738 54.2773 104.262 52.6914 104.262 50.707V50.5664ZM108.223 50.8125C108.223 51.8516 108.418 52.6758 108.809 53.2852C109.199 53.8867 109.746 54.1875 110.449 54.1875C111.301 54.1875 111.922 53.9023 112.312 53.332V48C111.93 47.4219 111.316 47.1328 110.473 47.1328C109.77 47.1328 109.219 47.4492 108.82 48.082C108.422 48.707 108.223 49.6172 108.223 50.8125ZM122.695 57H118.734V44.3203H122.695V57ZM118.5 41.0508C118.5 40.4883 118.703 40.0273 119.109 39.668C119.516 39.3086 120.043 39.1289 120.691 39.1289C121.34 39.1289 121.867 39.3086 122.273 39.668C122.68 40.0273 122.883 40.4883 122.883 41.0508C122.883 41.6133 122.68 42.0742 122.273 42.4336C121.867 42.793 121.34 42.9727 120.691 42.9727C120.043 42.9727 119.516 42.793 119.109 42.4336C118.703 42.0742 118.5 41.6133 118.5 41.0508ZM128.766 44.3203L128.895 45.8086C129.77 44.6602 130.977 44.0859 132.516 44.0859C133.836 44.0859 134.82 44.4805 135.469 45.2695C136.125 46.0586 136.465 47.2461 136.488 48.832V57H132.527V48.9961C132.527 48.3555 132.398 47.8867 132.141 47.5898C131.883 47.2852 131.414 47.1328 130.734 47.1328C129.961 47.1328 129.387 47.4375 129.012 48.0469V57H125.062V44.3203H128.766ZM142.312 44.3203L142.441 45.8086C143.316 44.6602 144.523 44.0859 146.062 44.0859C147.383 44.0859 148.367 44.4805 149.016 45.2695C149.672 46.0586 150.012 47.2461 150.035 48.832V57H146.074V48.9961C146.074 48.3555 145.945 47.8867 145.688 47.5898C145.43 47.2852 144.961 47.1328 144.281 47.1328C143.508 47.1328 142.934 47.4375 142.559 48.0469V57H138.609V44.3203H142.312ZM158.367 57.2344C156.422 57.2344 154.848 56.6562 153.645 55.5C152.441 54.3359 151.84 52.8242 151.84 50.9648V50.6367C151.84 49.3398 152.078 48.1953 152.555 47.2031C153.039 46.2109 153.742 45.4453 154.664 44.9062C155.586 44.3594 156.68 44.0859 157.945 44.0859C159.727 44.0859 161.133 44.6406 162.164 45.75C163.195 46.8516 163.711 48.3906 163.711 50.3672V51.9023H155.859C156 52.6133 156.309 53.1719 156.785 53.5781C157.262 53.9844 157.879 54.1875 158.637 54.1875C159.887 54.1875 160.863 53.75 161.566 52.875L163.371 55.0078C162.879 55.6875 162.18 56.2305 161.273 56.6367C160.375 57.0352 159.406 57.2344 158.367 57.2344ZM157.922 47.1328C156.766 47.1328 156.078 47.8984 155.859 49.4297H159.844V49.125C159.859 48.4922 159.699 48.0039 159.363 47.6602C159.027 47.3086 158.547 47.1328 157.922 47.1328ZM172.98 47.8945L171.68 47.8008C170.438 47.8008 169.641 48.1914 169.289 48.9727V57H165.34V44.3203H169.043L169.172 45.9492C169.836 44.707 170.762 44.0859 171.949 44.0859C172.371 44.0859 172.738 44.1328 173.051 44.2266L172.98 47.8945ZM175.992 45.2812L174.258 44.3438C174.906 43.2188 175.238 42.1172 175.254 41.0391V39H178.137V40.9102C178.137 41.6367 177.926 42.4141 177.504 43.2422C177.09 44.0625 176.586 44.7422 175.992 45.2812ZM184.348 53.4375C184.348 53.1016 184.172 52.832 183.82 52.6289C183.469 52.4258 182.801 52.2148 181.816 51.9961C180.832 51.7773 180.02 51.4922 179.379 51.1406C178.738 50.7812 178.25 50.3477 177.914 49.8398C177.578 49.332 177.41 48.75 177.41 48.0938C177.41 46.9297 177.891 45.9727 178.852 45.2227C179.812 44.4648 181.07 44.0859 182.625 44.0859C184.297 44.0859 185.641 44.4648 186.656 45.2227C187.672 45.9805 188.18 46.9766 188.18 48.2109H184.219C184.219 47.1953 183.684 46.6875 182.613 46.6875C182.199 46.6875 181.852 46.8047 181.57 47.0391C181.289 47.2656 181.148 47.5508 181.148 47.8945C181.148 48.2461 181.32 48.5312 181.664 48.75C182.008 48.9688 182.555 49.1484 183.305 49.2891C184.062 49.4297 184.727 49.5977 185.297 49.793C187.203 50.4492 188.156 51.625 188.156 53.3203C188.156 54.4766 187.641 55.418 186.609 56.1445C185.586 56.8711 184.258 57.2344 182.625 57.2344C181.539 57.2344 180.57 57.0391 179.719 56.6484C178.867 56.2578 178.203 55.7266 177.727 55.0547C177.25 54.3828 177.012 53.6758 177.012 52.9336H180.703C180.719 53.5195 180.914 53.9492 181.289 54.2227C181.664 54.4883 182.145 54.6211 182.73 54.6211C183.27 54.6211 183.672 54.5117 183.938 54.293C184.211 54.0742 184.348 53.7891 184.348 53.4375ZM210.141 54.8906C209.508 55.5938 208.582 56.1602 207.363 56.5898C206.145 57.0195 204.809 57.2344 203.355 57.2344C201.121 57.2344 199.336 56.5508 198 55.1836C196.664 53.8164 195.949 51.9141 195.855 49.4766L195.844 48C195.844 46.3203 196.141 44.8555 196.734 43.6055C197.328 42.3477 198.176 41.3828 199.277 40.7109C200.387 40.0312 201.668 39.6914 203.121 39.6914C205.246 39.6914 206.895 40.1797 208.066 41.1562C209.246 42.125 209.934 43.5742 210.129 45.5039H206.168C206.027 44.5508 205.723 43.8711 205.254 43.4648C204.785 43.0586 204.121 42.8555 203.262 42.8555C202.23 42.8555 201.434 43.293 200.871 44.168C200.309 45.043 200.023 46.293 200.016 47.918V48.9492C200.016 50.6523 200.305 51.9336 200.883 52.793C201.469 53.6445 202.387 54.0703 203.637 54.0703C204.707 54.0703 205.504 53.832 206.027 53.3555V50.707H203.168V47.8828H210.141V54.8906ZM219.902 55.6289C219.066 56.6992 217.938 57.2344 216.516 57.2344C215.125 57.2344 214.07 56.832 213.352 56.0273C212.641 55.2148 212.285 54.0508 212.285 52.5352V44.3203H216.234V52.5586C216.234 53.6445 216.762 54.1875 217.816 54.1875C218.723 54.1875 219.367 53.8633 219.75 53.2148V44.3203H223.723V57H220.02L219.902 55.6289ZM230.062 57H226.102V44.3203H230.062V57ZM225.867 41.0508C225.867 40.4883 226.07 40.0273 226.477 39.668C226.883 39.3086 227.41 39.1289 228.059 39.1289C228.707 39.1289 229.234 39.3086 229.641 39.668C230.047 40.0273 230.25 40.4883 230.25 41.0508C230.25 41.6133 230.047 42.0742 229.641 42.4336C229.234 42.793 228.707 42.9727 228.059 42.9727C227.41 42.9727 226.883 42.793 226.477 42.4336C226.07 42.0742 225.867 41.6133 225.867 41.0508ZM232.008 50.5664C232.008 48.5586 232.441 46.9766 233.309 45.8203C234.176 44.6641 235.387 44.0859 236.941 44.0859C238.074 44.0859 239.027 44.5312 239.801 45.4219V39H243.762V57H240.211L240.012 55.6406C239.199 56.7031 238.168 57.2344 236.918 57.2344C235.41 57.2344 234.215 56.6562 233.332 55.5C232.449 54.3438 232.008 52.6992 232.008 50.5664ZM235.957 50.8125C235.957 53.0625 236.613 54.1875 237.926 54.1875C238.801 54.1875 239.426 53.8203 239.801 53.0859V48.2578C239.441 47.5078 238.824 47.1328 237.949 47.1328C236.73 47.1328 236.07 48.1172 235.969 50.0859L235.957 50.8125ZM252.141 57.2344C250.195 57.2344 248.621 56.6562 247.418 55.5C246.215 54.3359 245.613 52.8242 245.613 50.9648V50.6367C245.613 49.3398 245.852 48.1953 246.328 47.2031C246.812 46.2109 247.516 45.4453 248.438 44.9062C249.359 44.3594 250.453 44.0859 251.719 44.0859C253.5 44.0859 254.906 44.6406 255.938 45.75C256.969 46.8516 257.484 48.3906 257.484 50.3672V51.9023H249.633C249.773 52.6133 250.082 53.1719 250.559 53.5781C251.035 53.9844 251.652 54.1875 252.41 54.1875C253.66 54.1875 254.637 53.75 255.34 52.875L257.145 55.0078C256.652 55.6875 255.953 56.2305 255.047 56.6367C254.148 57.0352 253.18 57.2344 252.141 57.2344ZM251.695 47.1328C250.539 47.1328 249.852 47.8984 249.633 49.4297H253.617V49.125C253.633 48.4922 253.473 48.0039 253.137 47.6602C252.801 47.3086 252.32 47.1328 251.695 47.1328ZM161.531 69.168V72.3203H163.617V75.0625H161.531V80.8633C161.531 81.3398 161.617 81.6719 161.789 81.8594C161.961 82.0469 162.301 82.1406 162.809 82.1406C163.199 82.1406 163.527 82.1172 163.793 82.0703V84.8945C163.082 85.1211 162.34 85.2344 161.566 85.2344C160.207 85.2344 159.203 84.9141 158.555 84.2734C157.906 83.6328 157.582 82.6602 157.582 81.3555V75.0625H155.965V72.3203H157.582V69.168H161.531ZM164.332 78.543C164.332 77.2773 164.578 76.1523 165.07 75.168C165.562 74.1758 166.27 73.4141 167.191 72.8828C168.113 72.3516 169.195 72.0859 170.438 72.0859C172.336 72.0859 173.832 72.6758 174.926 73.8555C176.02 75.0273 176.566 76.625 176.566 78.6484V78.7891C176.566 80.7656 176.016 82.3359 174.914 83.5C173.82 84.6562 172.336 85.2344 170.461 85.2344C168.656 85.2344 167.207 84.6953 166.113 83.6172C165.02 82.5312 164.43 81.0625 164.344 79.2109L164.332 78.543ZM168.281 78.7891C168.281 79.9609 168.465 80.8203 168.832 81.3672C169.199 81.9141 169.742 82.1875 170.461 82.1875C171.867 82.1875 172.586 81.1055 172.617 78.9414V78.543C172.617 76.2695 171.891 75.1328 170.438 75.1328C169.117 75.1328 168.402 76.1133 168.293 78.0742L168.281 78.7891ZM108.457 107.211V113H104.344V95.9375H111.152C112.457 95.9375 113.609 96.1797 114.609 96.6641C115.617 97.1406 116.395 97.8242 116.941 98.7148C117.496 99.5977 117.773 100.602 117.773 101.727C117.773 103.391 117.176 104.723 115.98 105.723C114.793 106.715 113.16 107.211 111.082 107.211H108.457ZM108.457 104.035H111.152C111.949 104.035 112.555 103.836 112.969 103.438C113.391 103.039 113.602 102.477 113.602 101.75C113.602 100.953 113.387 100.316 112.957 99.8398C112.527 99.3633 111.941 99.1211 111.199 99.1133H108.457V104.035ZM119.133 106.543C119.133 105.277 119.379 104.152 119.871 103.168C120.363 102.176 121.07 101.414 121.992 100.883C122.914 100.352 123.996 100.086 125.238 100.086C127.137 100.086 128.633 100.676 129.727 101.855C130.82 103.027 131.367 104.625 131.367 106.648V106.789C131.367 108.766 130.816 110.336 129.715 111.5C128.621 112.656 127.137 113.234 125.262 113.234C123.457 113.234 122.008 112.695 120.914 111.617C119.82 110.531 119.23 109.062 119.145 107.211L119.133 106.543ZM123.082 106.789C123.082 107.961 123.266 108.82 123.633 109.367C124 109.914 124.543 110.188 125.262 110.188C126.668 110.188 127.387 109.105 127.418 106.941V106.543C127.418 104.27 126.691 103.133 125.238 103.133C123.918 103.133 123.203 104.113 123.094 106.074L123.082 106.789ZM137.707 97.168V100.32H139.793V103.062H137.707V108.863C137.707 109.34 137.793 109.672 137.965 109.859C138.137 110.047 138.477 110.141 138.984 110.141C139.375 110.141 139.703 110.117 139.969 110.07V112.895C139.258 113.121 138.516 113.234 137.742 113.234C136.383 113.234 135.379 112.914 134.73 112.273C134.082 111.633 133.758 110.66 133.758 109.355V103.062H132.141V100.32H133.758V97.168H137.707ZM156.316 108.465C156.316 107.863 156.102 107.395 155.672 107.059C155.25 106.723 154.504 106.375 153.434 106.016C152.363 105.656 151.488 105.309 150.809 104.973C148.598 103.887 147.492 102.395 147.492 100.496C147.492 99.5508 147.766 98.7188 148.312 98C148.867 97.2734 149.648 96.7109 150.656 96.3125C151.664 95.9062 152.797 95.7031 154.055 95.7031C155.281 95.7031 156.379 95.9219 157.348 96.3594C158.324 96.7969 159.082 97.4219 159.621 98.2344C160.16 99.0391 160.43 99.9609 160.43 101H156.328C156.328 100.305 156.113 99.7656 155.684 99.3828C155.262 99 154.688 98.8086 153.961 98.8086C153.227 98.8086 152.645 98.9727 152.215 99.3008C151.793 99.6211 151.582 100.031 151.582 100.531C151.582 100.969 151.816 101.367 152.285 101.727C152.754 102.078 153.578 102.445 154.758 102.828C155.938 103.203 156.906 103.609 157.664 104.047C159.508 105.109 160.43 106.574 160.43 108.441C160.43 109.934 159.867 111.105 158.742 111.957C157.617 112.809 156.074 113.234 154.113 113.234C152.73 113.234 151.477 112.988 150.352 112.496C149.234 111.996 148.391 111.316 147.82 110.457C147.258 109.59 146.977 108.594 146.977 107.469H151.102C151.102 108.383 151.336 109.059 151.805 109.496C152.281 109.926 153.051 110.141 154.113 110.141C154.793 110.141 155.328 109.996 155.719 109.707C156.117 109.41 156.316 108.996 156.316 108.465ZM166.957 97.168V100.32H169.043V103.062H166.957V108.863C166.957 109.34 167.043 109.672 167.215 109.859C167.387 110.047 167.727 110.141 168.234 110.141C168.625 110.141 168.953 110.117 169.219 110.07V112.895C168.508 113.121 167.766 113.234 166.992 113.234C165.633 113.234 164.629 112.914 163.98 112.273C163.332 111.633 163.008 110.66 163.008 109.355V103.062H161.391V100.32H163.008V97.168H166.957ZM174.773 113H170.812V100.32H174.773V113ZM170.578 97.0508C170.578 96.4883 170.781 96.0273 171.188 95.668C171.594 95.3086 172.121 95.1289 172.77 95.1289C173.418 95.1289 173.945 95.3086 174.352 95.668C174.758 96.0273 174.961 96.4883 174.961 97.0508C174.961 97.6133 174.758 98.0742 174.352 98.4336C173.945 98.793 173.418 98.9727 172.77 98.9727C172.121 98.9727 171.594 98.793 171.188 98.4336C170.781 98.0742 170.578 97.6133 170.578 97.0508ZM182.578 110.188C183.133 110.188 183.562 110.039 183.867 109.742C184.172 109.438 184.32 109.016 184.312 108.477H188.016C188.016 109.867 187.516 111.008 186.516 111.898C185.523 112.789 184.242 113.234 182.672 113.234C180.828 113.234 179.375 112.656 178.312 111.5C177.25 110.344 176.719 108.742 176.719 106.695V106.531C176.719 105.25 176.953 104.121 177.422 103.145C177.898 102.16 178.582 101.406 179.473 100.883C180.363 100.352 181.418 100.086 182.637 100.086C184.285 100.086 185.594 100.543 186.562 101.457C187.531 102.371 188.016 103.609 188.016 105.172H184.312C184.312 104.516 184.152 104.012 183.832 103.66C183.512 103.309 183.082 103.133 182.543 103.133C181.52 103.133 180.922 103.785 180.75 105.09C180.695 105.504 180.668 106.074 180.668 106.801C180.668 108.074 180.82 108.957 181.125 109.449C181.43 109.941 181.914 110.188 182.578 110.188ZM194.777 108.277L193.664 109.391V113H189.715V94.9883H193.664V104.551L194.062 104.023L197.039 100.32H201.773L197.332 105.535L202.066 113H197.543L194.777 108.277ZM208.711 113.234C206.766 113.234 205.191 112.656 203.988 111.5C202.785 110.336 202.184 108.824 202.184 106.965V106.637C202.184 105.34 202.422 104.195 202.898 103.203C203.383 102.211 204.086 101.445 205.008 100.906C205.93 100.359 207.023 100.086 208.289 100.086C210.07 100.086 211.477 100.641 212.508 101.75C213.539 102.852 214.055 104.391 214.055 106.367V107.902H206.203C206.344 108.613 206.652 109.172 207.129 109.578C207.605 109.984 208.223 110.188 208.98 110.188C210.23 110.188 211.207 109.75 211.91 108.875L213.715 111.008C213.223 111.688 212.523 112.23 211.617 112.637C210.719 113.035 209.75 113.234 208.711 113.234ZM208.266 103.133C207.109 103.133 206.422 103.898 206.203 105.43H210.188V105.125C210.203 104.492 210.043 104.004 209.707 103.66C209.371 103.309 208.891 103.133 208.266 103.133ZM223.324 103.895L222.023 103.801C220.781 103.801 219.984 104.191 219.633 104.973V113H215.684V100.32H219.387L219.516 101.949C220.18 100.707 221.105 100.086 222.293 100.086C222.715 100.086 223.082 100.133 223.395 100.227L223.324 103.895ZM231.387 109.438C231.387 109.102 231.211 108.832 230.859 108.629C230.508 108.426 229.84 108.215 228.855 107.996C227.871 107.777 227.059 107.492 226.418 107.141C225.777 106.781 225.289 106.348 224.953 105.84C224.617 105.332 224.449 104.75 224.449 104.094C224.449 102.93 224.93 101.973 225.891 101.223C226.852 100.465 228.109 100.086 229.664 100.086C231.336 100.086 232.68 100.465 233.695 101.223C234.711 101.98 235.219 102.977 235.219 104.211H231.258C231.258 103.195 230.723 102.688 229.652 102.688C229.238 102.688 228.891 102.805 228.609 103.039C228.328 103.266 228.188 103.551 228.188 103.895C228.188 104.246 228.359 104.531 228.703 104.75C229.047 104.969 229.594 105.148 230.344 105.289C231.102 105.43 231.766 105.598 232.336 105.793C234.242 106.449 235.195 107.625 235.195 109.32C235.195 110.477 234.68 111.418 233.648 112.145C232.625 112.871 231.297 113.234 229.664 113.234C228.578 113.234 227.609 113.039 226.758 112.648C225.906 112.258 225.242 111.727 224.766 111.055C224.289 110.383 224.051 109.676 224.051 108.934H227.742C227.758 109.52 227.953 109.949 228.328 110.223C228.703 110.488 229.184 110.621 229.77 110.621C230.309 110.621 230.711 110.512 230.977 110.293C231.25 110.074 231.387 109.789 231.387 109.438Z" fill="black"/>
<defs>
<filter id="filter0_d" x="0" y="0" width="331" height="168" filterUnits="userSpaceOnUse" color-interpolation-filters="sRGB">
<feFlood flood-opacity="0" result="BackgroundImageFix"/>
<feColorMatrix in="SourceAlpha" type="matrix" values="0 0 0 0 0 0 0 0 0 0 0 0 0 0 0 0 0 0 127 0"/>
<feOffset dy="4"/>
<feGaussianBlur stdDeviation="10"/>
<feColorMatrix type="matrix" values="0 0 0 0 0 0 0 0 0 0 0 0 0 0 0 0 0 0 0.25 0"/>
<feBlend mode="normal" in2="BackgroundImageFix" result="effect1_dropShadow"/>
<feBlend mode="normal" in="SourceGraphic" in2="effect1_dropShadow" result="shape"/>
</filter>
<linearGradient id="paint0_linear" x1="165.5" y1="18" x2="165.5" y2="142" gradientUnits="userSpaceOnUse">
<stop stop-color="white"/>
<stop offset="1" stop-color="white" stop-opacity="0"/>
</linearGradient>
</defs>
</svg>
