<?xml version="1.0" standalone="no"?>
<!DOCTYPE svg PUBLIC "-//W3C//DTD SVG 20010904//EN"
 "http://www.w3.org/TR/2001/REC-SVG-20010904/DTD/svg10.dtd">
<svg version="1.0" xmlns="http://www.w3.org/2000/svg"
 width="1280.000000pt" height="1058.000000pt" viewBox="0 0 1280.000000 1058.000000"
 preserveAspectRatio="xMidYMid meet">
<metadata>
Created by potrace 1.15, written by Peter Selinger 2001-2017
</metadata>
<g transform="translate(0.000000,1058.000000) scale(0.100000,-0.100000)"
fill="#000000" stroke="none">
<path d="M3680 10567 c-19 -6 -55 -32 -80 -57 -45 -45 -47 -50 -259 -660 -118
-338 -216 -617 -218 -619 -1 -2 -40 3 -85 12 -414 81 -870 17 -1296 -184 -312
-146 -640 -393 -879 -661 -458 -513 -742 -1133 -839 -1828 -25 -176 -25 -578
-1 -745 101 -692 406 -1211 902 -1538 94 -62 252 -142 343 -173 28 -10 52 -23
52 -27 0 -5 -99 -292 -220 -638 -230 -657 -234 -673 -208 -760 14 -50 69 -114
118 -139 20 -10 671 -272 1446 -581 1532 -610 4382 -1746 4719 -1880 194 -78
215 -84 280 -84 85 1 136 24 190 87 24 28 584 1098 1556 2973 836 1612 1536
2955 1557 2985 20 30 75 93 122 140 77 78 122 109 480 335 807 507 851 536
871 569 27 44 24 71 -13 111 -29 31 -149 81 -1023 429 -544 216 -1532 610
-2195 874 -2050 817 -4039 1609 -4625 1843 -586 233 -616 242 -695 216z m-845
-2095 c19 -7 -19 -121 -612 -1812 -442 -1264 -636 -1804 -645 -1802 -41 10
-164 97 -239 169 -210 202 -338 477 -395 843 -21 139 -24 447 -5 590 132 981
800 1840 1561 2004 66 15 298 20 335 8z"/>
<path d="M12240 6368 c-58 -145 -195 -388 -345 -608 -154 -225 -189 -312 -189
-475 0 -337 247 -615 546 -615 141 0 248 48 360 160 113 115 170 242 184 413
14 158 -31 281 -179 494 -160 230 -249 388 -317 563 -18 47 -36 89 -40 93 -4
4 -13 -7 -20 -25z"/>
</g>
</svg>
