<svg width="226" height="43" viewBox="0 0 226 43" fill="none" xmlns="http://www.w3.org/2000/svg">
<path d="M132.833 21.5H138.667L127 35.5L115.333 21.5H121.167V7.5L132.833 7.5V21.5Z" fill="black"/>
<g clip-path="url(#clip0)">
<path d="M78.1667 17.5H72.3333L84 3.5L95.6667 17.5H89.8333V31.5H78.1667V17.5Z" fill="black"/>
</g>
<path d="M2.80957 22.5V26H0.799805V16.0469H4.19043C5.1748 16.0469 5.95866 16.3522 6.54199 16.9629C7.12988 17.5736 7.42383 18.3665 7.42383 19.3418C7.42383 20.3171 7.13444 21.0872 6.55566 21.6523C5.97689 22.2174 5.1748 22.5 4.14941 22.5H2.80957ZM2.80957 20.8252H4.19043C4.57324 20.8252 4.86947 20.6999 5.0791 20.4492C5.28874 20.1986 5.39355 19.834 5.39355 19.3555C5.39355 18.8587 5.28646 18.4645 5.07227 18.1729C4.85807 17.8766 4.57096 17.7262 4.21094 17.7217H2.80957V20.8252ZM11.7852 22.3633H10.7871V26H8.77734V16.0469H11.9834C12.9906 16.0469 13.7676 16.3089 14.3145 16.833C14.8659 17.3525 15.1416 18.0931 15.1416 19.0547C15.1416 20.3763 14.6608 21.3014 13.6992 21.8301L15.4424 25.9043V26H13.2822L11.7852 22.3633ZM10.7871 20.6885H11.9287C12.3298 20.6885 12.6305 20.5563 12.8311 20.292C13.0316 20.0231 13.1318 19.6654 13.1318 19.2188C13.1318 18.2207 12.7422 17.7217 11.9629 17.7217H10.7871V20.6885ZM21.6631 21.6934H18.5322V24.332H22.2373V26H16.5225V16.0469H22.2236V17.7217H18.5322V20.0732H21.6631V21.6934ZM26.6396 23.2656L28.3145 16.0469H30.5566L27.6855 26H25.5938L22.7432 16.0469H24.9717L26.6396 23.2656ZM38.9238 23.3887C38.9238 22.9831 38.819 22.6777 38.6094 22.4727C38.4043 22.263 38.0283 22.0465 37.4814 21.8232C36.4834 21.445 35.7656 21.0029 35.3281 20.4971C34.8906 19.9867 34.6719 19.3851 34.6719 18.6924C34.6719 17.8538 34.9681 17.1816 35.5605 16.6758C36.1576 16.1654 36.9141 15.9102 37.8301 15.9102C38.4408 15.9102 38.9854 16.04 39.4639 16.2998C39.9424 16.555 40.3092 16.9173 40.5645 17.3867C40.8242 17.8561 40.9541 18.3893 40.9541 18.9863H38.9512C38.9512 18.5215 38.8509 18.1683 38.6504 17.9268C38.4544 17.6807 38.1696 17.5576 37.7959 17.5576C37.445 17.5576 37.1715 17.6624 36.9756 17.8721C36.7796 18.0771 36.6816 18.3551 36.6816 18.7061C36.6816 18.9795 36.791 19.2279 37.0098 19.4512C37.2285 19.6699 37.6159 19.8978 38.1719 20.1348C39.1426 20.4857 39.8467 20.9163 40.2842 21.4268C40.7262 21.9372 40.9473 22.5866 40.9473 23.375C40.9473 24.2409 40.6715 24.9176 40.1201 25.4053C39.5687 25.8929 38.819 26.1367 37.8711 26.1367C37.2285 26.1367 36.6429 26.0046 36.1143 25.7402C35.5856 25.4759 35.1709 25.0977 34.8701 24.6055C34.5739 24.1133 34.4258 23.5322 34.4258 22.8623H36.4424C36.4424 23.4365 36.554 23.8535 36.7773 24.1133C37.0007 24.373 37.3652 24.5029 37.8711 24.5029C38.5729 24.5029 38.9238 24.1315 38.9238 23.3887ZM48.7266 17.7217H46.2656V26H44.249V17.7217H41.8291V16.0469H48.7266V17.7217ZM55.0225 21.6934H51.8916V24.332H55.5967V26H49.8818V16.0469H55.583V17.7217H51.8916V20.0732H55.0225V21.6934ZM58.7686 22.5V26H56.7588V16.0469H60.1494C61.1338 16.0469 61.9176 16.3522 62.501 16.9629C63.0889 17.5736 63.3828 18.3665 63.3828 19.3418C63.3828 20.3171 63.0934 21.0872 62.5146 21.6523C61.9359 22.2174 61.1338 22.5 60.1084 22.5H58.7686ZM58.7686 20.8252H60.1494C60.5322 20.8252 60.8285 20.6999 61.0381 20.4492C61.2477 20.1986 61.3525 19.834 61.3525 19.3555C61.3525 18.8587 61.2454 18.4645 61.0312 18.1729C60.8171 17.8766 60.5299 17.7262 60.1699 17.7217H58.7686V20.8252Z" fill="black"/>
<path d="M151.759 26H149.749L146.81 19.4717V26H144.8V16.0469H146.81L149.756 22.582V16.0469H151.759V26ZM158.513 21.6934H155.382V24.332H159.087V26H153.372V16.0469H159.073V17.7217H155.382V20.0732H158.513V21.6934ZM163.366 19.4648L164.706 16.0469H167.01L164.672 20.9824L167.064 26H164.733L163.366 22.5205L162.006 26H159.675L162.067 20.9824L159.723 16.0469H162.026L163.366 19.4648ZM174.529 17.7217H172.068V26H170.052V17.7217H167.632V16.0469H174.529V17.7217ZM182.705 23.3887C182.705 22.9831 182.6 22.6777 182.391 22.4727C182.186 22.263 181.81 22.0465 181.263 21.8232C180.265 21.445 179.547 21.0029 179.109 20.4971C178.672 19.9867 178.453 19.3851 178.453 18.6924C178.453 17.8538 178.749 17.1816 179.342 16.6758C179.939 16.1654 180.695 15.9102 181.611 15.9102C182.222 15.9102 182.767 16.04 183.245 16.2998C183.724 16.555 184.09 16.9173 184.346 17.3867C184.605 17.8561 184.735 18.3893 184.735 18.9863H182.732C182.732 18.5215 182.632 18.1683 182.432 17.9268C182.236 17.6807 181.951 17.5576 181.577 17.5576C181.226 17.5576 180.953 17.6624 180.757 17.8721C180.561 18.0771 180.463 18.3551 180.463 18.7061C180.463 18.9795 180.572 19.2279 180.791 19.4512C181.01 19.6699 181.397 19.8978 181.953 20.1348C182.924 20.4857 183.628 20.9163 184.065 21.4268C184.507 21.9372 184.729 22.5866 184.729 23.375C184.729 24.2409 184.453 24.9176 183.901 25.4053C183.35 25.8929 182.6 26.1367 181.652 26.1367C181.01 26.1367 180.424 26.0046 179.896 25.7402C179.367 25.4759 178.952 25.0977 178.651 24.6055C178.355 24.1133 178.207 23.5322 178.207 22.8623H180.224C180.224 23.4365 180.335 23.8535 180.559 24.1133C180.782 24.373 181.146 24.5029 181.652 24.5029C182.354 24.5029 182.705 24.1315 182.705 23.3887ZM192.508 17.7217H190.047V26H188.03V17.7217H185.61V16.0469H192.508V17.7217ZM198.804 21.6934H195.673V24.332H199.378V26H193.663V16.0469H199.364V17.7217H195.673V20.0732H198.804V21.6934ZM202.55 22.5V26H200.54V16.0469H203.931C204.915 16.0469 205.699 16.3522 206.282 16.9629C206.87 17.5736 207.164 18.3665 207.164 19.3418C207.164 20.3171 206.875 21.0872 206.296 21.6523C205.717 22.2174 204.915 22.5 203.89 22.5H202.55ZM202.55 20.8252H203.931C204.313 20.8252 204.61 20.6999 204.819 20.4492C205.029 20.1986 205.134 19.834 205.134 19.3555C205.134 18.8587 205.027 18.4645 204.812 18.1729C204.598 17.8766 204.311 17.7262 203.951 17.7217H202.55V20.8252Z" fill="black"/>
<defs>
<clipPath id="clip0">
<rect x="66.5" y="42.5" width="42" height="35" transform="rotate(-90 66.5 42.5)" fill="white"/>
</clipPath>
</defs>
</svg>
