<svg width="287" height="39" viewBox="0 0 287 39" fill="none" xmlns="http://www.w3.org/2000/svg">
<path d="M285 6H275C273.9 6 273.01 6.95 273.01 8.11111L273 25L280 21.8333L287 25V8.11111C287 6.95 286.1 6 285 6ZM285 21.8333L280 19.5322L275 21.8333V8.11111H285V21.8333Z" fill="black"/>
<g filter="url(#filter0_d)">
<rect x="25" y="6" width="237" height="19" fill="white"/>
</g>
<path d="M12.5 19H11.71L11.43 18.73C12.41 17.59 13 16.11 13 14.5C13 10.91 10.09 8 6.5 8C2.91 8 0 10.91 0 14.5C0 18.09 2.91 21 6.5 21C8.11 21 9.59 20.41 10.73 19.43L11 19.71V20.5L16 25.49L17.49 24L12.5 19ZM6.5 19C4.01 19 2 16.99 2 14.5C2 12.01 4.01 10 6.5 10C8.99 10 11 12.01 11 14.5C11 16.99 8.99 19 6.5 19Z" fill="black"/>
<defs>
<filter id="filter0_d" x="15" y="0" width="257" height="39" filterUnits="userSpaceOnUse" color-interpolation-filters="sRGB">
<feFlood flood-opacity="0" result="BackgroundImageFix"/>
<feColorMatrix in="SourceAlpha" type="matrix" values="0 0 0 0 0 0 0 0 0 0 0 0 0 0 0 0 0 0 127 0"/>
<feOffset dy="4"/>
<feGaussianBlur stdDeviation="5"/>
<feColorMatrix type="matrix" values="0 0 0 0 0 0 0 0 0 0 0 0 0 0 0 0 0 0 0.25 0"/>
<feBlend mode="normal" in2="BackgroundImageFix" result="effect1_dropShadow"/>
<feBlend mode="normal" in="SourceGraphic" in2="effect1_dropShadow" result="shape"/>
</filter>
</defs>
</svg>
